PathFileType	4	(X/Y/Z)	Patient4_TMGait_0pt4_02_left_17.trc.trc
DataRate	CameraRate	NumFrames	NumMarkers	Units	OrigDataRate	OrigDataStartFrame	OrigNumFrames
71.428571428571	71.428571428571	4	33	mm	71.428571428571	53	       141
Frame#	Time	Sacral			L.Shoulder			Chest			R.Shoulder			Neck			R.ASIS			L.ASIS			R.Thigh.Superior			R.Thigh.Lateral			R.Thigh.Inferior			R.Patella			L.Thigh.Superior			L.Thigh.Lateral			L.Thigh.Inferior			L.Patella			L.Shank.Superior			L.Shank.Lateral			L.Shank.Inferior			R.Shank.Superior			R.Shank.Lateral			R.Shank.Inferior			R.Heel			R.Midfoot.Superior			R.Midfoot.Lateral			R.Toe			L.Heel			L.Midfoot.Lateral			L.Midfoot.Superior			L.Toe			L.Elbow			L.Wrist			R.Elbow			R.Wrist			
		X1	Y1	Z1	X2	Y2	Z2	X3	Y3	Z3	X4	Y4	Z4	X5	Y5	Z5	X6	Y6	Z6	X7	Y7	Z7	X8	Y8	Z8	X9	Y9	Z9	X10	Y10	Z10	X11	Y11	Z11	X12	Y12	Z12	X13	Y13	Z13	X14	Y14	Z14	X15	Y15	Z15	X16	Y16	Z16	X17	Y17	Z17	X18	Y18	Z18	X19	Y19	Z19	X20	Y20	Z20	X21	Y21	Z21	X22	Y22	Z22	X23	Y23	Z23	X24	Y24	Z24	X25	Y25	Z25	X26	Y26	Z26	X27	Y27	Z27	X28	Y28	Z28	X29	Y29	Z29	X30	Y30	Z30	X31	Y31	Z31	X32	Y32	Z32	X33	Y33	Z33	

53	23.438000000000	862.662723147353	1009.860220226189	415.333800631977	1050.278561931985	1417.514945757619	189.943212248038	1141.587160211586	1371.574576313537	364.819223413474	1045.970396064751	1463.691317866547	523.376799295287	1027.354911079949	1498.054196609284	335.354910225170	1091.505255754164	958.603571278298	537.103553398412	1079.715045782823	966.378970220281	262.644767454753	1177.528986673574	790.657167921367	518.390831817480	1142.497888150724	670.652308952719	600.461635072032	1232.149349251586	632.769727940698	522.503606594206	1264.985145537966	539.515452113278	550.124383722794	1119.788716165123	754.958385561455	291.159483150667	1025.656469849157	640.715377904046	231.338622910283	1111.476687037630	563.052554360282	289.620190209265	1109.452347051113	495.559422445610	298.417156680056	1086.553255274315	422.835678217910	293.667371037799	996.365810293123	303.699093806779	255.571074268845	1061.387212922910	197.134027838882	323.879348580932	1227.097893251415	450.183417275162	563.198239273075	1142.166194534316	359.408281756110	628.514243445468	1186.521201488889	255.352873404678	584.858085248146	1048.185483210492	99.507593840663	561.855287562299	1222.518496253648	131.867975559845	603.057826948442	1128.406757539491	77.470313575138	636.686629164140	1334.123402515573	67.134182454547	631.605997493795	945.535239599820	38.208864438221	377.621409445959	1018.604186725942	33.537520456043	295.487638701004	1099.584565644168	99.902855336696	319.121867438345	1229.423375178499	52.753035885604	294.245654174459	1087.466206910425	1063.935043617463	85.030504050467	1207.268995523720	831.087194094981	85.079281593194	943.477134363521	1151.170602285364	681.901427464675	970.500101893247	892.910200394691	717.162912583989	
54	23.452000000000	861.523597516043	1009.846371072255	414.122838832882	1050.656404959015	1417.078347017649	188.746142074839	1140.789553266364	1371.409681988184	364.273564939108	1044.241843732877	1463.777667746796	522.113478129026	1026.901144277366	1497.823799164447	333.698062787694	1089.919056317438	958.711704605524	536.876806191485	1079.366713827945	966.418076333304	262.249923904778	1174.665614116174	789.768049042263	518.628925170803	1139.265889026436	670.621046185963	601.496355255209	1228.007463469302	631.771252086218	522.886283661401	1261.921174044300	541.442285134486	550.708081468486	1117.841643837151	754.610098047459	291.507776955033	1023.089410241428	640.774818711257	230.810408362807	1108.191878281562	562.664888333878	289.265174363617	1105.703719901935	495.183356817052	297.960022268587	1082.482296155365	422.483385421251	293.344826435478	991.741839983591	303.682189893622	255.387687846274	1056.387534067453	196.942061469178	323.772633895198	1229.151996660544	452.141729420878	565.033786969350	1150.828757238662	356.544493400579	631.588697221854	1201.944922139460	255.290273513252	588.350582912744	1074.336322862635	90.985771374700	566.483044517316	1246.678678914472	133.723162432210	608.038167964673	1155.705013309304	73.879098969199	641.416522171241	1361.684295695887	75.171495828186	636.374807839390	939.985967465848	38.243729736526	377.646020497148	1013.034539024689	33.565753342402	295.535468656546	1094.127305297970	99.745207471523	319.201808275778	1223.907059128903	52.432242578361	294.297392674490	1090.432049851911	1063.619657252897	84.554749914263	1214.226143730131	832.785593608548	86.433103895814	936.359308418685	1153.387648893978	680.071493499265	955.190456807590	894.936698467840	718.827596234506	
55	23.466000000000	860.409709147436	1009.772179687023	413.061481766109	1050.980319396596	1416.531665855980	187.772032271655	1140.050644990367	1371.143966512394	363.895809852746	1042.679391774784	1463.785488836281	521.067063581866	1026.524101087599	1497.502127373195	332.223793404636	1088.345556971488	958.619974561177	536.765592652171	1079.066523444091	966.492589404716	261.942117573868	1171.512250462524	788.445094075918	519.049616745867	1135.473784988185	670.243154965729	602.679441606779	1223.528479828173	630.343700616678	523.666364727151	1258.250409620319	542.917246378765	551.449870349970	1115.967810443372	754.242039755057	291.754463815196	1020.571249268301	640.818908023261	230.349386139177	1104.974383238990	562.273088187504	288.934263012044	1102.040387468500	494.808977337100	297.547840011664	1078.477408963053	422.128325437843	293.068489911514	987.177486968593	303.679999527896	255.216990770330	1051.427764172843	196.752612309801	323.684546793880	1230.506741617625	454.053488407006	566.857264209734	1158.962372924045	354.160904973635	634.621582616701	1216.440054823489	256.107019161634	591.620574105468	1099.752254032453	84.212192631370	570.905175795420	1269.693286171375	136.945632925693	612.552450831784	1182.089457519374	71.937650290977	645.767743338439	1387.724965572720	84.589362547432	640.431092412737	934.436239797070	38.284343903373	377.671775217040	1007.465577711398	33.603079632719	295.592345284789	1088.682759595256	99.579267527692	319.288009505116	1218.390889111193	52.083191891139	294.348241937406	1092.944306927675	1063.161988090023	84.271112116083	1220.895695136843	834.519930292564	87.927184964737	929.794560148841	1155.402416590146	678.333916024361	941.356936104882	897.039747156790	720.059956298612	
56	23.480000000000	859.322912607799	1009.671131905985	412.135638932331	1051.252684412860	1415.910044350279	187.023668512984	1139.369945535939	1370.805404885935	363.689945012976	1041.283380897619	1463.747819978538	520.240410685880	1026.218503828329	1497.121946680573	330.942418782665	1086.778728750819	958.376822945897	536.770725275240	1078.790573452497	966.596455213711	261.731003643414	1168.156020868074	786.830241696724	519.662084375290	1131.236975601376	669.597905780996	603.970296789775	1218.901317857923	628.646175843589	524.853911992562	1254.154029915529	544.022038095312	552.346123530033	1114.143690574770	753.846340555795	291.904240290160	1018.069327123402	640.856890913263	229.980876228318	1101.784628087090	561.874315856354	288.662406180189	1098.417842616472	494.440857013226	297.221637928753	1074.503083718210	421.781759686619	292.867363125717	982.646555553863	303.699943458236	255.082484424779	1046.485819442944	196.570882327893	323.629747842317	1231.231650343825	455.950464778425	568.634259562074	1166.459882162687	352.329887512317	637.546163314735	1229.792885108221	257.749209058529	594.612934532738	1123.922850730441	79.214269958078	575.082441351189	1291.178166196189	141.320936000525	616.449317219151	1207.102087906568	71.540287096897	649.653504262975	1411.855680899776	95.046707470055	643.584145938066	928.879853056624	38.327791791348	377.699193281653	1001.893717793594	33.649386903927	295.657050684422	1083.239269251783	99.416572182954	319.378518330520	1212.868295688763	51.728248949119	294.393640689173	1095.054293996233	1062.590223052756	84.190235073893	1227.236971481658	836.281744081480	89.557631088133	923.796473152635	1157.226368783753	676.729310923351	929.076559400944	899.124517018376	720.912562866564	
